# xmcd CD database file
#
# Track frame offsets:
#	150
#	12924
#	25932
#	39469
#	53143
#	66152
#	78968
#	92658
#	105042
#	119497
#	139893
#	172882
#	200924
#	225993
#	249842
#	263413
#	297015
#	320811
#
# Disc length: 4640 seconds
#
# Revision: 4
# Processed by: cddbd v1.5.2PL0 Copyright (c) Steve Scherf et al.
# Submitted via: CDex 1.51
#
DISCID=e7121e12
DTITLE=Stan Getz - Early Spring  {1951}
DYEAR=2004
DGENRE=Jazz
TTITLE0=Early Spring
TTITLE1=Penny
TTITLE2=Split Kick
TTITLE3=It Might As Well Be Spring
TTITLE4=The Best Thing For You
TTITLE5=Melody Express
TTITLE6=Yvette
TTITLE7=Potter's Luck
TTITLE8=Wildwood
TTITLE9=Thou Swell
TTITLE10=The Song Is You
TTITLE11=Parker 51
TTITLE12=Mosquito Knees
TTITLE13=Budo
TTITLE14=Yersterdays
TTITLE15=Jumpin' With Symphony Sid
TTITLE16=Pennies From Heaven
TTITLE17=Move
EXTD=Jazz Archives No. 217 EPM YEAR: 2004
EXTT0=
EXTT1=
EXTT2=
EXTT3=
EXTT4=
EXTT5=
EXTT6=
EXTT7=
EXTT8=
EXTT9=
EXTT10=
EXTT11=
EXTT12=
EXTT13=
EXTT14=
EXTT15=
EXTT16=
EXTT17=
PLAYORDER=
